# xmcd CD database file
#
# Track frame offsets:
#	150
#	15352
#	26678
#	52950
#	67680
#	81937
#	95214
#	108881
#	122851
#	135994
#	147840
#	160987
#	173551
#	186489
#	201038
#	214946
#	228309
#	247083
#	263846
#	280421
#	298182
#	315995
#
# Disc length: 4500 seconds
#
# Revision: 1
# Processed by: cddbd v1.4PL0 Copyright (c) Steve Scherf et al.
# Submitted via: CDValet v3.40 - Copyright (c) 1996 - 1998 Greg Leichner
#
DISCID=3c119216
DTITLE=Newbury, Mickey - Harlequin Melodies
DYEAR=1900
DGENRE=
TTITLE0=Sweet Memories
TTITLE1=Here Comes The Rain Baby
TTITLE2=Mister Can't You See?
TTITLE3=How Many Times Must The Piper Be Paid For His Song?
TTITLE4=Are My Thoughts With You?
TTITLE5=Harlequin Melodies
TTITLE6=Funny, Familiar, Forgotten Feelings
TTITLE7=Time Is A Thief
TTITLE8=Good Morning Dear
TTITLE9=Weeping Annaleah
TTITLE10=Just Dropped In
TTITLE11=Sunshine
TTITLE12=Get Down On Saturday
TTITLE13=The Queen
TTITLE14=Organised Noise
TTITLE15=Remember The Good
TTITLE16=The Future's Not What It Used To Be
TTITLE17=How I Love Them Old Songs
TTITLE18=If I Ever Get To Houston
TTITLE19=She Even Woke Me Up To Say Goodbye
TTITLE20=Dizzy Lizzy
TTITLE21=An American Trilogy
EXTD=
EXTT0=
EXTT1=
EXTT2=
EXTT3=
EXTT4=
EXTT5=
EXTT6=
EXTT7=
EXTT8=
EXTT9=
EXTT10=
EXTT11=
EXTT12=
EXTT13=
EXTT14=
EXTT15=
EXTT16=
EXTT17=
EXTT18=
EXTT19=
EXTT20=
EXTT21=
PLAYORDER=
